<?xml version="1.0" standalone="no"?>
<!DOCTYPE svg PUBLIC "-//W3C//DTD SVG 20010904//EN"
 "http://www.w3.org/TR/2001/REC-SVG-20010904/DTD/svg10.dtd">
<svg version="1.0" xmlns="http://www.w3.org/2000/svg"
 width="288.000000pt" height="288.000000pt" viewBox="0 0 288.000000 288.000000"
 preserveAspectRatio="xMidYMid meet">
<metadata>
Created by potrace 1.14, written by Peter Selinger 2001-2017
</metadata>
<g transform="translate(0.000000,288.000000) scale(0.100000,-0.100000)"
fill="#000000" stroke="none">
<path d="M1288 2815 c-2 -2 -21 -5 -43 -9 -49 -7 -73 -12 -118 -24 -20 -6 -38
-7 -41 -4 -3 3 -6 0 -6 -6 0 -6 -6 -9 -14 -6 -8 3 -17 0 -21 -5 -3 -6 -11 -9
-16 -6 -5 4 -9 2 -9 -2 0 -5 -9 -9 -20 -10 -31 -3 -201 -80 -259 -118 -29 -19
-55 -35 -58 -35 -16 0 -179 -140 -245 -210 -161 -171 -272 -373 -339 -620 -7
-25 -13 -49 -14 -55 0 -5 -4 -32 -8 -60 -4 -27 -10 -66 -12 -85 -7 -49 -6
-192 0 -270 6 -63 7 -75 19 -130 3 -14 11 -50 17 -80 6 -30 14 -59 18 -65 4
-5 13 -30 20 -54 7 -24 25 -69 39 -100 14 -31 25 -60 24 -64 -1 -4 5 -10 13
-13 8 -3 12 -10 9 -15 -3 -5 2 -16 10 -25 9 -8 16 -22 16 -30 0 -8 5 -14 10
-14 6 0 10 -7 10 -15 0 -8 5 -15 10 -15 6 0 10 -6 10 -14 0 -7 7 -19 15 -26 8
-7 12 -16 9 -21 -3 -5 0 -8 8 -7 8 2 13 -6 12 -18 0 -15 4 -20 13 -17 9 4 16
-3 20 -16 3 -11 10 -21 15 -21 5 0 6 -5 2 -12 -4 -6 -3 -9 2 -5 5 3 23 -10 39
-29 44 -51 95 -104 95 -98 0 3 7 -2 16 -11 9 -9 27 -23 40 -32 13 -8 21 -19
18 -24 -3 -5 -1 -8 4 -7 10 3 38 -13 72 -43 10 -8 37 -24 59 -35 22 -10 41
-26 41 -34 0 -13 1 -13 10 0 6 9 10 10 10 3 0 -6 16 -17 35 -24 19 -7 35 -17
35 -21 0 -4 3 -7 8 -6 8 3 134 -43 142 -51 3 -4 19 -8 35 -9 17 -2 34 -8 40
-13 5 -5 22 -9 38 -9 15 0 26 -3 24 -7 -3 -5 9 -9 26 -9 58 -2 97 -8 97 -14 0
-4 24 -6 54 -4 47 2 54 0 49 -14 -3 -13 -2 -14 4 -4 7 9 45 14 119 17 60 2
129 7 154 10 25 3 59 7 77 8 17 1 29 5 27 9 -3 5 8 8 25 8 16 0 32 4 36 9 3 6
14 8 25 6 11 -2 20 0 20 4 0 4 7 8 15 9 8 1 22 3 30 4 8 1 15 6 15 11 0 6 3 7
6 4 4 -3 16 -1 28 5 11 7 23 13 26 13 3 1 25 10 50 20 25 11 46 17 48 15 2 -3
8 3 13 12 6 10 17 18 24 18 8 0 15 5 15 11 0 8 5 7 15 -1 9 -7 18 -10 22 -6 3
3 1 6 -7 6 -10 0 -10 3 0 15 7 8 17 15 22 15 10 0 61 34 96 64 12 11 22 17 22
13 0 -3 13 6 29 21 16 15 52 48 79 74 28 25 53 43 57 40 4 -4 5 -2 3 4 -4 14
67 95 76 86 4 -4 6 -2 5 3 -6 19 33 66 50 60 12 -5 13 -3 5 5 -9 9 -5 22 14
51 14 21 29 39 33 39 5 0 6 7 3 15 -4 8 -2 15 4 15 10 0 68 114 78 155 3 14
11 25 17 25 6 0 7 3 4 6 -3 4 -1 16 5 28 7 11 13 26 14 31 0 6 2 13 4 18 1 4
3 10 5 15 1 4 5 19 9 33 4 14 9 34 11 45 2 10 4 19 5 19 1 0 3 9 5 20 8 42 15
81 22 120 9 55 9 288 -1 355 -12 81 -14 92 -20 120 -4 14 -8 34 -11 45 -2 11
-8 34 -14 52 -5 17 -7 34 -3 37 3 3 1 6 -4 6 -5 0 -16 21 -23 47 -26 86 -145
305 -196 359 -5 6 -21 26 -35 44 -51 68 -165 175 -275 258 -21 15 -71 47 -95
60 -13 7 -39 22 -57 33 -18 12 -33 17 -33 12 0 -4 -4 -3 -8 3 -4 6 -27 18 -52
28 -86 35 -200 75 -200 71 0 -3 -10 -1 -23 4 -24 9 -55 15 -157 31 -47 7 -335
11 -342 5z"/>
<path d="M2196 218 c3 -5 10 -6 15 -3 13 9 11 12 -6 12 -8 0 -12 -4 -9 -9z"/>
<path d="M873 125 c0 -8 4 -12 9 -9 5 3 6 10 3 15 -9 13 -12 11 -12 -6z"/>
</g>
</svg>
